# xmcd
#
# Track frame offsets:
#	150
#	14482
#	31375
#	47517
#	60492
#	75025
#	93087
#	105742
#	122070
#	138522
#	152335
#	168910
#	182597
#
# Disc length: 2660
#
# Revision: 1
# Processed by: cddbd v1.5.1PL0 Copyright (c) Steve Scherf et al.
# Submitted via: EasyCDDAExtractor 4.6.9.1
# Normalized: r0:TDELIM( - )
#
DISCID=8e0a620d
DTITLE=Various Artist - Big Valley Jamboree
DYEAR=1997
DGENRE=Country
TTITLE0=Lisa Brokop - When You Get To Be Me
TTITLE1=David Lee Murphy - Dust On The Bottle
TTITLE2=Julian Austin - Diamond
TTITLE3=Jo Dee Messina - You're Not In Kansas Anymore
TTITLE4=Jason McCoy - Heaven Help Her Heart
TTITLE5=Sherrie Austin - One Solitary Tear
TTITLE6=Ronnie Prophet and Gloria-Anne - Two Hearts
TTITLE7=Dixie Chicks - You Were Mine
TTITLE8=Jamie Warren - One Step Back
TTITLE9=Shirley Myers - Let It Rain
TTITLE10=The Poverty Plainsmen - Old Man
TTITLE11=Ricochet - Daddy's Money
TTITLE12=George Fox - The Night The Barn Burned Down
EXTD=
EXTT0=
EXTT1=
EXTT2=
EXTT3=
EXTT4=
EXTT5=
EXTT6=
EXTT7=
EXTT8=
EXTT9=
EXTT10=
EXTT11=
EXTT12=
PLAYORDER=
